<?xml version="1.0" encoding="UTF-8"?>
<svg version="1.1" xmlns="http://www.w3.org/2000/svg" width="216" height="216">
<path d="M0 0 C71.28 0 142.56 0 216 0 C216 71.28 216 142.56 216 216 C144.72 216 73.44 216 0 216 C0 144.72 0 73.44 0 0 Z " fill="#FEF5EB" transform="translate(0,0)"/>
<path d="M0 0 C3.16752236 -0.2684341 6.074611 -0.77535847 9.15625 -1.5234375 C28.60208878 -4.78221818 46.90237202 -0.11663842 62.96875 11.06640625 C75.88870055 20.98708257 85.17572362 35.87706059 88 52 C88.4536536 57.88426405 88.28566174 63.79223944 88.1875 69.6875 C88.17241751 71.27537785 88.15873545 72.86326965 88.14648438 74.45117188 C88.11377999 78.30113221 88.06219823 82.15040784 88 86 C88.68707031 85.96519531 89.37414062 85.93039063 90.08203125 85.89453125 C90.98308594 85.86746094 91.88414062 85.84039062 92.8125 85.8125 C94.15248047 85.76029297 94.15248047 85.76029297 95.51953125 85.70703125 C98 86 98 86 99.88671875 87.01171875 C101.3679247 89.6571006 100.82230016 91.51227459 100.3369751 94.41848755 C99.59177829 100.12732141 99.85753817 105.93440651 99.8671875 111.68359375 C99.86651244 113.10791541 99.86554073 114.53223696 99.86428833 115.95655823 C99.86282039 118.93109237 99.86493639 121.90559634 99.86962891 124.88012695 C99.87532042 128.6702665 99.87204508 132.46033513 99.86605644 136.25047207 C99.86242188 139.18891421 99.86360274 142.12733988 99.86618423 145.06578255 C99.86684578 146.46226065 99.86605244 147.85874031 99.86370468 149.2552166 C99.82943345 158.27983273 99.82943345 158.27983273 100.75830078 167.23852539 C101 171 101 171 99.39477539 173.03759766 C96.65558401 174.13841246 94.63547703 174.38762191 91.68359375 174.3984375 C90.67232422 174.40230469 89.66105469 174.40617188 88.61914062 174.41015625 C87.56919922 174.39855469 86.51925781 174.38695312 85.4375 174.375 C84.38369141 174.38660156 83.32988281 174.39820313 82.24414062 174.41015625 C81.23416016 174.40628906 80.22417969 174.40242187 79.18359375 174.3984375 C78.26118896 174.39505371 77.33878418 174.39166992 76.38842773 174.38818359 C73.51717962 173.92152873 72.76382135 173.26613908 71 171 C71.16715681 168.93187048 71.35937985 166.86332622 71.6630249 164.81079102 C72.36196339 158.98077556 72.14269383 153.08326272 72.1328125 147.21875 C72.13348777 145.79585758 72.13445965 144.37296527 72.13571167 142.95007324 C72.13717815 139.98151542 72.13506806 137.01298787 72.13037109 134.04443359 C72.12467445 130.26216979 72.12795911 126.47997697 72.13394356 122.69771576 C72.13757764 119.76356483 72.13639757 116.82943039 72.13381577 113.89527893 C72.13315436 112.50159191 72.13394705 111.10790334 72.13629532 109.71421814 C72.14592705 102.39338264 71.99780376 95.2571149 71 88 C74.20380017 85.86413322 75.01939967 85.76867825 78.6875 85.875 C79.49574219 85.89304687 80.30398437 85.91109375 81.13671875 85.9296875 C81.75160156 85.95289062 82.36648437 85.97609375 83 86 C82.9802707 81.43170048 82.92764606 76.86524566 82.84741211 72.29760742 C82.82453615 70.75116081 82.80990957 69.20456513 82.80444336 67.65795898 C82.7377222 51.865574 79.55829851 38.98892935 70 26 C69.56300781 25.36835937 69.12601563 24.73671875 68.67578125 24.0859375 C60.83391846 13.77141527 47.19432222 6.73416042 34.70703125 4.37890625 C30.30363827 3.92882288 25.98430908 3.89117968 21.5625 3.9375 C20.32209961 3.94426758 20.32209961 3.94426758 19.05664062 3.95117188 C17.03772854 3.96284189 15.01885426 3.98077282 13 4 C15.92707575 6.27358907 18.95341832 8.21095508 22.125 10.125 C28.01325699 13.85997152 33.03215789 18.1210136 38 23 C39.14275391 24.10601562 39.14275391 24.10601562 40.30859375 25.234375 C56.29601188 41.7482419 64.66229012 65.47267853 64.34692383 88.28051758 C63.74104352 104.64733756 56.36717949 119.9905861 44.78515625 131.4453125 C37.32045884 138.29231406 29.55026449 142.646272 20 146 C19.29746094 146.2475 18.59492187 146.495 17.87109375 146.75 C1.97511962 151.22949173 -14.97106696 147.86765518 -29.15234375 140.27734375 C-34.48184221 137.25073109 -38.78171489 133.42176454 -43 129 C-43.64324219 128.36449219 -44.28648438 127.72898438 -44.94921875 127.07421875 C-55.81650947 115.68831546 -60.71432095 99.28791626 -60.53857422 83.76123047 C-59.3520714 57.24676793 -46.67723154 35.03482447 -27.47558594 17.29833984 C-21.88060458 12.37542276 -15.52608855 8.54678725 -9 5 C-11.38484128 2.61515872 -17.95292957 3.68873897 -21.29296875 3.68310547 C-36.86394364 3.91771279 -50.34070417 9.81890935 -61.64453125 20.51171875 C-71.90857593 31.35449895 -78.18371561 43.5761052 -78.4140625 58.55859375 C-78.43342865 59.34774673 -78.4527948 60.13689972 -78.4727478 60.94996643 C-78.53204824 63.44570447 -78.5787285 65.94148989 -78.625 68.4375 C-78.66322551 70.13999296 -78.70227984 71.84246752 -78.7421875 73.54492188 C-78.83770828 77.69646341 -78.92191969 81.84809533 -79 86 C-78.38511719 85.97679688 -77.77023438 85.95359375 -77.13671875 85.9296875 C-76.32847656 85.91164063 -75.52023438 85.89359375 -74.6875 85.875 C-73.48673828 85.84019531 -73.48673828 85.84019531 -72.26171875 85.8046875 C-70 86 -70 86 -67 88 C-67.16226074 89.18013672 -67.32452148 90.36027344 -67.49169922 91.57617188 C-68.23368215 98.29803002 -68.14419274 105.02714818 -68.1328125 111.78125 C-68.13348777 113.20414242 -68.13445965 114.62703473 -68.13571167 116.04992676 C-68.13717815 119.01848458 -68.13506806 121.98701213 -68.13037109 124.95556641 C-68.12467445 128.73783021 -68.12795911 132.52002303 -68.13394356 136.30228424 C-68.13757764 139.23643517 -68.13639757 142.17056961 -68.13381577 145.10472107 C-68.13315436 146.49840809 -68.13394705 147.89209666 -68.13629532 149.28578186 C-68.16693085 158.28927142 -68.16693085 158.28927142 -67.30419922 167.23632812 C-67 171 -67 171 -68.32498169 172.71096802 C-70.70657167 174.54375136 -72.45781034 174.38805014 -75.4375 174.3984375 C-77.02691406 174.40423828 -77.02691406 174.40423828 -78.6484375 174.41015625 C-79.75445312 174.39855469 -80.86046875 174.38695312 -82 174.375 C-83.10601562 174.38660156 -84.21203125 174.39820313 -85.3515625 174.41015625 C-86.41117188 174.40628906 -87.47078125 174.40242187 -88.5625 174.3984375 C-89.53316406 174.39505371 -90.50382812 174.39166992 -91.50390625 174.38818359 C-94.45613728 173.92906316 -95.19767887 173.32717653 -97 171 C-96.8328057 168.93261429 -96.64051583 166.86482303 -96.3369751 164.8130188 C-95.63711458 158.97068559 -95.85730731 153.06044891 -95.8671875 147.18359375 C-95.8665123 145.7583057 -95.86554048 144.33301776 -95.86428833 142.9077301 C-95.86282199 139.93497612 -95.86493179 136.96225239 -95.86962891 133.98950195 C-95.87533077 130.19817165 -95.87203751 126.4069121 -95.86605644 122.61558437 C-95.86242643 119.67718482 -95.8636005 116.73880177 -95.86618423 113.80040169 C-95.86684649 112.40309707 -95.86604989 111.00579089 -95.86370468 109.60848808 C-95.79459434 100.90556667 -95.79459434 100.90556667 -96.69580078 92.26977539 C-97 89 -97 89 -95.88671875 87.01171875 C-93.39524732 85.67571233 -91.62567745 85.70289568 -88.8125 85.8125 C-87.91144531 85.83957031 -87.01039062 85.86664063 -86.08203125 85.89453125 C-85.05142578 85.94673828 -85.05142578 85.94673828 -84 86 C-84.02094727 85.01306152 -84.04189453 84.02612305 -84.06347656 83.00927734 C-84.13696078 79.27814783 -84.18218482 75.54707927 -84.21972656 71.81542969 C-84.23959929 70.21343156 -84.2667074 68.61150355 -84.30175781 67.00976562 C-84.71909317 47.41955301 -80.09688366 31.80247344 -66.234375 17.2421875 C-65.12835938 16.13230469 -65.12835938 16.13230469 -64 15 C-63.38640625 14.36320312 -62.7728125 13.72640625 -62.140625 13.0703125 C-45.9798432 -2.46890077 -20.97345617 -5.66352384 0 0 Z " fill="#D9B792" transform="translate(105,22)"/>
<path d="M0 0 C2.13671875 1.28125 2.13671875 1.28125 4.3125 2.8125 C5.12332031 3.3178125 5.93414062 3.823125 6.76953125 4.34375 C17.33026197 11.22201394 24.75169629 19.50361162 30.3125 30.8125 C30.74820313 31.69035156 31.18390625 32.56820312 31.6328125 33.47265625 C35.92486967 43.90265532 36.09866316 57.41268118 33.46484375 68.32421875 C32.30678034 71.07609145 31.01173763 73.36080192 29.3125 75.8125 C28.73113281 76.69035156 28.14976562 77.56820312 27.55078125 78.47265625 C21.05097719 87.42471904 12.23215818 92.89760342 1.3125 94.8125 C-10.28722203 95.984043 -20.05473359 93.40876529 -29.5546875 86.6328125 C-36.86303251 80.39528727 -42.97772751 72.26669544 -43.90625 62.51513672 C-44.94902159 45.28659492 -41.47870378 31.8500387 -31.4375 17.625 C-30.86 17.026875 -30.2825 16.42875 -29.6875 15.8125 C-29.0275 15.8125 -28.3675 15.8125 -27.6875 15.8125 C-27.48125 15.255625 -27.275 14.69875 -27.0625 14.125 C-25.11066968 10.84237629 -22.74519006 9.10576754 -19.6875 6.8125 C-19.0275 6.8125 -18.3675 6.8125 -17.6875 6.8125 C-17.6875 6.1525 -17.6875 5.4925 -17.6875 4.8125 C-5.31242712 -2.30268873 -5.31242712 -2.30268873 0 0 Z " fill="#FEF5EB" transform="translate(111.6875,29.1875)"/>
<path d="M0 0 C0.33 0.66 0.66 1.32 1 2 C0.32792255 3.63218809 -0.34932835 5.26421075 -1.11328125 6.85546875 C-3.83800084 13.44520907 -4.33789375 19.23780007 -4.3125 26.3125 C-4.32861328 27.19873047 -4.34472656 28.08496094 -4.36132812 28.99804688 C-4.37014702 41.08875752 -0.28422642 51.60704994 8.2578125 60.296875 C17.96469146 68.59922164 29.29623506 72.7310098 42 72 C52.76371204 71.01561254 63.36638721 66.81536547 71 59 C81.48698199 45.22921557 83.32552162 33.05607238 82 16 C81.32007979 12.26686833 80.15266626 8.80349167 78.77734375 5.265625 C78.52082031 4.51796875 78.26429688 3.7703125 78 3 C78.33 2.34 78.66 1.68 79 1 C91.43111231 19.84370339 98.61008122 39.29268949 95.57421875 62.21484375 C92.15063853 77.86249567 83.39081093 90.86299079 70.6015625 100.3984375 C56.66605133 108.97735579 41.73282681 110.91014668 25.6875 108.4375 C14.41942505 105.60573247 5.00898526 99.24628852 -3 91 C-3.57234375 90.44828125 -4.1446875 89.8965625 -4.734375 89.328125 C-14.6385568 79.01552333 -18.5161794 63.19165945 -18.42407227 49.28515625 C-18.0001392 37.24945377 -14.6370236 25.60785351 -9 15 C-8.57460938 14.18917969 -8.14921875 13.37835938 -7.7109375 12.54296875 C-5.36197412 8.19810704 -2.81070287 4.05990414 0 0 Z " fill="#FEF5EA" transform="translate(68,56)"/>
<path d="M0 0 C1.11431396 0.00410889 2.22862793 0.00821777 3.37670898 0.01245117 C4.58391602 0.01438477 5.79112305 0.01631836 7.03491211 0.01831055 C8.30141602 0.03055664 9.56791992 0.04280273 10.87280273 0.05541992 C12.77835938 0.05638672 12.77835938 0.05638672 14.72241211 0.05737305 C24.1702022 0.10281939 24.1702022 0.10281939 25.31030273 1.24291992 C25.0696647 3.28300483 24.82699277 5.32286094 24.57696533 7.36181641 C24.03361402 13.23234859 24.16756444 19.13326982 24.17749023 25.02416992 C24.17681497 26.44706234 24.17584309 27.86995465 24.17459106 29.29284668 C24.17312459 32.26140451 24.17523467 35.22993205 24.17993164 38.19848633 C24.18562828 41.98075014 24.18234363 45.76294295 24.17635918 49.54520416 C24.17272509 52.4793551 24.17390517 55.41348953 24.17648697 58.34764099 C24.17714838 59.74132801 24.17635569 61.13501659 24.17400742 62.52870178 C24.14337188 71.53219134 24.14337188 71.53219134 25.00610352 80.47924805 C25.31030273 84.24291992 25.31030273 84.24291992 23.98532104 85.95388794 C21.60373107 87.78667128 19.8524924 87.63097006 16.87280273 87.64135742 C15.81319336 87.64522461 14.75358398 87.6490918 13.66186523 87.65307617 C12.55584961 87.64147461 11.44983398 87.62987305 10.31030273 87.61791992 C9.20428711 87.62952148 8.09827148 87.64112305 6.95874023 87.65307617 C5.89913086 87.64920898 4.83952148 87.6453418 3.74780273 87.64135742 C2.77713867 87.63797363 1.80647461 87.63458984 0.80639648 87.63110352 C-2.14583454 87.17198308 -2.88737614 86.57009645 -4.68969727 84.24291992 C-4.52250296 82.17553421 -4.3302131 80.10774296 -4.02667236 78.05593872 C-3.32681184 72.21360551 -3.54700458 66.30336883 -3.55688477 60.42651367 C-3.55620957 59.00122562 -3.55523775 57.57593768 -3.5539856 56.15065002 C-3.55251926 53.17789605 -3.55462905 50.20517231 -3.55932617 47.23242188 C-3.56502803 43.44109158 -3.56173478 39.64983202 -3.55575371 35.8585043 C-3.55212369 32.92010474 -3.55329777 29.98172169 -3.5558815 27.04332161 C-3.55654376 25.64601699 -3.55574715 24.24871082 -3.55340195 22.851408 C-3.49368003 14.12293193 -3.49368003 14.12293193 -4.32299805 5.45019531 C-4.50451416 3.86259399 -4.50451416 3.86259399 -4.68969727 2.24291992 C-2.68969727 0.24291992 -2.68969727 0.24291992 0 0 Z " fill="#DA412F" transform="translate(12.689697265625,108.757080078125)"/>
<path d="M0 0 C1.26650391 -0.01224609 2.53300781 -0.02449219 3.83789062 -0.03710938 C5.04509766 -0.03904297 6.25230469 -0.04097656 7.49609375 -0.04296875 C9.1675647 -0.04913208 9.1675647 -0.04913208 10.87280273 -0.05541992 C13.5625 0.1875 13.5625 0.1875 15.5625 2.1875 C15.35695567 3.98526023 15.13681506 5.78199477 14.86431885 7.5708313 C14.20305294 13.30378607 14.42001279 19.10678659 14.4296875 24.87109375 C14.42901244 26.29541541 14.42804073 27.71973696 14.42678833 29.14405823 C14.42532039 32.11859237 14.42743639 35.09309634 14.43212891 38.06762695 C14.43782042 41.8577665 14.43454508 45.64783513 14.42855644 49.43797207 C14.42492188 52.37641421 14.42610274 55.31483988 14.42868423 58.25328255 C14.42934578 59.64976065 14.42855244 61.04624031 14.42620468 62.4427166 C14.39193345 71.46733273 14.39193345 71.46733273 15.32080078 80.42602539 C15.5625 84.1875 15.5625 84.1875 13.95727539 86.22509766 C11.21808401 87.32591246 9.19797703 87.57512191 6.24609375 87.5859375 C5.23482422 87.58980469 4.22355469 87.59367187 3.18164062 87.59765625 C2.13169922 87.58605469 1.08175781 87.57445312 0 87.5625 C-1.05380859 87.57410156 -2.10761719 87.58570313 -3.19335938 87.59765625 C-4.20333984 87.59378906 -5.21332031 87.58992188 -6.25390625 87.5859375 C-7.17631104 87.58255371 -8.09871582 87.57916992 -9.04907227 87.57568359 C-11.92032038 87.10902873 -12.67367865 86.45363908 -14.4375 84.1875 C-14.27034319 82.11937048 -14.07812015 80.05082622 -13.7744751 77.99829102 C-13.07553661 72.16827556 -13.29480617 66.27076272 -13.3046875 60.40625 C-13.30401223 58.98335758 -13.30304035 57.56046527 -13.30178833 56.13757324 C-13.30032185 53.16901542 -13.30243194 50.20048787 -13.30712891 47.23193359 C-13.31282555 43.44966979 -13.30954089 39.66747697 -13.30355644 35.88521576 C-13.29992236 32.95106483 -13.30110243 30.01693039 -13.30368423 27.08277893 C-13.30434564 25.68909191 -13.30355295 24.29540334 -13.30120468 22.90171814 C-13.28152224 13.84469346 -13.28152224 13.84469346 -14.00830078 4.82617188 C-14.14993652 3.62541016 -14.29157227 2.42464844 -14.4375 1.1875 C-11.73678847 -1.51321153 -3.64079036 0.00184718 0 0 Z " fill="#D93E2C" transform="translate(190.4375,108.8125)"/>
<path d="M0 0 C15.00470112 -0.83359451 28.38354487 7.00942953 39.5 16.55859375 C50.85488604 27.64734965 58.95591688 43.26313164 59.28166199 59.26242065 C59.30081184 63.07197412 59.25092248 66.87856107 59.1875 70.6875 C59.17241751 72.27537785 59.15873545 73.86326965 59.14648438 75.45117188 C59.11377999 79.30113221 59.06219823 83.15040784 59 87 C62.3 87 65.6 87 69 87 C69 87.33 69 87.66 69 88 C61.08 88 53.16 88 45 88 C45 87.67 45 87.34 45 87 C47.97 87 50.94 87 54 87 C53.9802707 82.43170048 53.92764606 77.86524566 53.84741211 73.29760742 C53.82453615 71.75116081 53.80990957 70.20456513 53.80444336 68.65795898 C53.7377222 52.865574 50.55829851 39.98892935 41 27 C40.56300781 26.36835937 40.12601563 25.73671875 39.67578125 25.0859375 C31.01150983 13.6896886 16.2223504 6.84140173 2.3918457 4.95288086 C-0.7352402 4.57641144 -3.86189991 4.26990078 -7 4 C-7 3.67 -7 3.34 -7 3 C-6.21753906 2.93941406 -5.43507812 2.87882812 -4.62890625 2.81640625 C-3.61699219 2.73261719 -2.60507813 2.64882813 -1.5625 2.5625 C-0.55316406 2.48128906 0.45617187 2.40007813 1.49609375 2.31640625 C3.93640779 2.26788532 3.93640779 2.26788532 5 1 C3.35 1 1.7 1 0 1 C0 0.67 0 0.34 0 0 Z " fill="#D9B591" transform="translate(134,21)"/>
<path d="M0 0 C2.63430679 -0.28030953 4.99583122 -0.37622126 7.625 -0.3125 C8.35195068 -0.30484619 9.07890137 -0.29719238 9.82788086 -0.28930664 C13.54524371 -0.20881174 16.9699333 0.02385695 20.5625 1.0625 C25.10266569 2.30072701 28.60912223 1.60326415 33.10546875 0.46875 C37.28072246 -0.20740445 41.40225041 -0.18430095 45.625 -0.1875 C46.91277344 -0.20586914 46.91277344 -0.20586914 48.2265625 -0.22460938 C49.0515625 -0.22654297 49.8765625 -0.22847656 50.7265625 -0.23046875 C51.47502441 -0.23457764 52.22348633 -0.23868652 52.99462891 -0.24291992 C55 0 55 0 58 2 C57.67 2.66 57.34 3.32 57 4 C55.05053711 4.41064453 55.05053711 4.41064453 52.52734375 4.6328125 C51.62822266 4.71660156 50.72910156 4.80039062 49.80273438 4.88671875 C48.85720703 4.96535156 47.91167969 5.04398438 46.9375 5.125 C45.98810547 5.21136719 45.03871094 5.29773438 44.06054688 5.38671875 C41.70764908 5.59954368 39.35431405 5.80357031 37 6 C40.96529375 9.0914257 45.23131696 11.6024111 49.5390625 14.18359375 C52.01324528 16.00977628 52.93976547 17.16231348 54 20 C52 21 52 21 49 22 C44.0615716 19.47665463 39.58877063 15.99505785 35.03515625 12.83984375 C31.97134449 10.98262967 29.51143674 9.72184707 26 9 C23.27556645 9.81653574 23.27556645 9.81653574 20.8125 11.375 C16.24331551 14 16.24331551 14 13 14 C13 14.66 13 15.32 13 16 C11.1015625 17.69140625 11.1015625 17.69140625 8.625 19.5625 C7.81289062 20.18253906 7.00078125 20.80257812 6.1640625 21.44140625 C4 23 4 23 2 24 C0 21 0 21 0 17 C1.50390625 15.4375 1.50390625 15.4375 3.5625 14 C4.64724609 13.23816406 4.64724609 13.23816406 5.75390625 12.4609375 C8.7713943 10.49825832 11.83480109 8.71448274 15 7 C13.45049732 5.45049732 11.90009406 5.78344807 9.74609375 5.68359375 C8.89208984 5.64169922 8.03808594 5.59980469 7.15820312 5.55664062 C6.26037109 5.51732422 5.36253906 5.47800781 4.4375 5.4375 C3.53580078 5.39431641 2.63410156 5.35113281 1.70507812 5.30664062 C-0.52978485 5.20021858 -2.76476308 5.09820012 -5 5 C-4.67 3.68 -4.34 2.36 -4 1 C-3.34 1.66 -2.68 2.32 -2 3 C-1.34 2.01 -0.68 1.02 0 0 Z " fill="#D8AB88" transform="translate(81,20)"/>
<path d="M0 0 C0.33 0 0.66 0 1 0 C1.02505615 1.14065918 1.0501123 2.28131836 1.07592773 3.45654297 C1.16994293 7.67964341 1.27017787 11.90257709 1.37231445 16.12548828 C1.41568565 17.95487575 1.45735911 19.78430427 1.49731445 21.61376953 C1.55496418 24.24003486 1.61867365 26.8660931 1.68359375 29.4921875 C1.70030624 30.31306854 1.71701874 31.13394958 1.73423767 31.97970581 C1.7431387 36.1233696 1.7431387 36.1233696 3 40 C2.34 40 1.68 40 1 40 C1.33 45.61 1.66 51.22 2 57 C2.33 55.35 2.66 53.7 3 52 C4.98 51.505 4.98 51.505 7 51 C7 51.66 7 52.32 7 53 C6.34 53 5.68 53 5 53 C5 53.66 5 54.32 5 55 C5.66 55.33 6.32 55.66 7 56 C6.34 56 5.68 56 5 56 C4.67 57.32 4.34 58.64 4 60 C6.64 60 9.28 60 12 60 C12 60.66 12 61.32 12 62 C12.66 62 13.32 62 14 62 C14 62.66 14 63.32 14 64 C14.99 63.505 14.99 63.505 16 63 C16.33 62.01 16.66 61.02 17 60 C17.33 60.66 17.66 61.32 18 62 C21.27773504 61.24849977 21.27773504 61.24849977 23 58 C23 59.65 23 61.3 23 63 C21.515 63.495 21.515 63.495 20 64 C19.67 64.66 19.34 65.32 19 66 C19.66 66.33 20.32 66.66 21 67 C20.01 67.99 20.01 67.99 19 69 C19.495 69.495 19.495 69.495 20 70 C20 69.34 20 68.68 20 68 C20.66 68 21.32 68 22 68 C22 67.01 22 66.02 22 65 C23.485 64.505 23.485 64.505 25 64 C24.67 63.01 24.34 62.02 24 61 C24.4375 58.3125 24.4375 58.3125 25 56 C24.34 55.67 23.68 55.34 23 55 C22.375 51.9375 22.375 51.9375 22 49 C22.66 49 23.32 49 24 49 C24.33 32.83 24.66 16.66 25 0 C25.33 0 25.66 0 26 0 C26.01030746 0.76928329 26.02061493 1.53856659 26.03123474 2.3311615 C26.12957924 9.61291859 26.23214292 16.8945987 26.33933926 24.17623043 C26.39429197 27.91897313 26.44766463 31.66172392 26.49731445 35.40454102 C26.5453698 39.02263579 26.59772171 42.64064611 26.65294075 46.25863838 C26.67317957 47.63276605 26.69192064 49.0069167 26.70907402 50.38108635 C26.80337602 59.33837131 26.80337602 59.33837131 27.76977539 68.22875977 C28 72 28 72 26.39477539 74.03759766 C23.65558401 75.13841246 21.63547703 75.38762191 18.68359375 75.3984375 C17.67232422 75.40230469 16.66105469 75.40617187 15.61914062 75.41015625 C14.56919922 75.39855469 13.51925781 75.38695312 12.4375 75.375 C11.38369141 75.38660156 10.32988281 75.39820313 9.24414062 75.41015625 C8.23416016 75.40628906 7.22417969 75.40242188 6.18359375 75.3984375 C5.26118896 75.39505371 4.33878418 75.39166992 3.38842773 75.38818359 C0.51688197 74.92148036 -0.23571327 74.26614329 -2 72 C-1.83928669 69.92949251 -1.65241383 67.85831488 -1.34817505 65.8039856 C-0.62975321 60.01826234 -0.75628918 54.16352631 -0.68359375 48.33984375 C-0.6629795 46.94022572 -0.64198201 45.54061329 -0.62062073 44.14100647 C-0.56586103 40.48658835 -0.51625178 36.83211843 -0.46777344 33.1776123 C-0.41721811 29.43672161 -0.3617111 25.69590459 -0.30664062 21.95507812 C-0.19962445 14.63678144 -0.098058 7.31842279 0 0 Z " fill="#DC4932" transform="translate(178,121)"/>
<path d="M0 0 C0.66 0.33 1.32 0.66 2 1 C1.814375 1.78375 1.62875 2.5675 1.4375 3.375 C0.74037734 5.97089775 0.74037734 5.97089775 2 8 C4.52733235 8.65555119 4.52733235 8.65555119 7 9 C6.6875 10.9375 6.6875 10.9375 6 13 C5.01 13.33 4.02 13.66 3 14 C2.67 14.99 2.34 15.98 2 17 C3.32 16.67 4.64 16.34 6 16 C6 16.66 6 17.32 6 18 C5.01 18 4.02 18 3 18 C2.67 18.66 2.34 19.32 2 20 C2.33 20.33 2.66 20.66 3 21 C0.35261084 22.4606285 -0.89448334 23 -4 23 C-4 23.66 -4 24.32 -4 25 C-1.03 24.34 1.94 23.68 5 23 C5.33 21.68 5.66 20.36 6 19 C6.99 19.33 7.98 19.66 9 20 C9 21.32 9 22.64 9 24 C10.32 22.68 11.64 21.36 13 20 C11.35 19.34 9.7 18.68 8 18 C8.99 17.34 9.98 16.68 11 16 C11 16.66 11 17.32 11 18 C12.65 17.67 14.3 17.34 16 17 C16.24954005 18.43410368 16.47392642 19.87260072 16.6875 21.3125 C16.87892578 22.51326172 16.87892578 22.51326172 17.07421875 23.73828125 C17 26 17 26 15.83520508 27.61645508 C13.33785511 29.49918519 11.67043486 29.38760307 8.5625 29.3984375 C7.50289062 29.40230469 6.44328125 29.40617187 5.3515625 29.41015625 C4.24554687 29.39855469 3.13953125 29.38695312 2 29.375 C0.89398438 29.38660156 -0.21203125 29.39820313 -1.3515625 29.41015625 C-2.41117188 29.40628906 -3.47078125 29.40242188 -4.5625 29.3984375 C-5.53316406 29.39505371 -6.50382813 29.39166992 -7.50390625 29.38818359 C-10 29 -10 29 -11.83520508 27.61645508 C-13.46599858 25.3533061 -13.11943355 24.02190135 -12.6875 21.3125 C-12.56761719 20.50425781 -12.44773437 19.69601563 -12.32421875 18.86328125 C-12.21722656 18.24839844 -12.11023437 17.63351563 -12 17 C-11.67 17.66 -11.34 18.32 -11 19 C-10.01 18.67 -9.02 18.34 -8 18 C-5.8125 19.4375 -5.8125 19.4375 -4 21 C-4.020625 20.236875 -4.04125 19.47375 -4.0625 18.6875 C-4 16 -4 16 -3 13 C-3.33 12.34 -3.66 11.68 -4 11 C-3.67 10.34 -3.34 9.68 -3 9 C-2.34 9 -1.68 9 -1 9 C-0.79029441 4.85906302 -0.79029441 4.85906302 -2 1 C-1.34 0.67 -0.68 0.34 0 0 Z " fill="#DD4D31" transform="translate(21,167)"/>
<path d="M0 0 C0.33 0 0.66 0 1 0 C1.01030746 0.76928329 1.02061493 1.53856659 1.03123474 2.3311615 C1.12957924 9.61291859 1.23214292 16.8945987 1.33933926 24.17623043 C1.39429197 27.91897313 1.44766463 31.66172392 1.49731445 35.40454102 C1.5453698 39.02263579 1.59772171 42.64064611 1.65294075 46.25863838 C1.67317957 47.63276605 1.69192064 49.0069167 1.70907402 50.38108635 C1.80337602 59.33837131 1.80337602 59.33837131 2.76977539 68.22875977 C3 72 3 72 1.40136719 74.04418945 C-1.39267384 75.15629505 -3.41545962 75.34307567 -6.421875 75.29296875 C-7.44667969 75.28330078 -8.47148437 75.27363281 -9.52734375 75.26367188 C-11.12255859 75.2259668 -11.12255859 75.2259668 -12.75 75.1875 C-14.36841797 75.16719727 -14.36841797 75.16719727 -16.01953125 75.14648438 C-18.6801942 75.11116584 -21.33984296 75.06184199 -24 75 C-24 74.67 -24 74.34 -24 74 C-23.13117188 73.95101562 -22.26234375 73.90203125 -21.3671875 73.8515625 C-19.63855469 73.73941406 -19.63855469 73.73941406 -17.875 73.625 C-16.16957031 73.52058594 -16.16957031 73.52058594 -14.4296875 73.4140625 C-11.04606384 73.00556124 -8.18387559 72.19032431 -5 71 C-5 70.01 -5 69.02 -5 68 C-4.34 68 -3.68 68 -3 68 C-3 67.01 -3 66.02 -3 65 C-1.515 64.505 -1.515 64.505 0 64 C-0.33 63.01 -0.66 62.02 -1 61 C-0.5625 58.3125 -0.5625 58.3125 0 56 C-0.66 55.67 -1.32 55.34 -2 55 C-2.625 51.9375 -2.625 51.9375 -3 49 C-2.34 49 -1.68 49 -1 49 C-0.67 32.83 -0.34 16.66 0 0 Z " fill="#E36A55" transform="translate(203,121)"/>
<path d="M0 0 C0.33 0.66 0.66 1.32 1 2 C2.65 1.67 4.3 1.34 6 1 C6.24954005 2.43410368 6.47392642 3.87260072 6.6875 5.3125 C6.81511719 6.11300781 6.94273438 6.91351563 7.07421875 7.73828125 C7 10 7 10 5.84179688 11.62304688 C3.30290384 13.52115885 1.60384912 13.34291824 -1.54296875 13.29296875 C-3.15268555 13.2784668 -3.15268555 13.2784668 -4.79492188 13.26367188 C-5.91447266 13.23853516 -7.03402344 13.21339844 -8.1875 13.1875 C-9.31865234 13.17396484 -10.44980469 13.16042969 -11.61523438 13.14648438 C-14.41063317 13.11109958 -17.20507892 13.06172948 -20 13 C-20 12.67 -20 12.34 -20 12 C-12.08 11.505 -12.08 11.505 -4 11 C-4.33 10.67 -4.66 10.34 -5 10 C-5.99 10.495 -5.99 10.495 -7 11 C-7.33 9.68 -7.66 8.36 -8 7 C-7.01 7 -6.02 7 -5 7 C-4.67 5.68 -4.34 4.36 -4 3 C-3.01 3.33 -2.02 3.66 -1 4 C-1 5.32 -1 6.64 -1 8 C0.32 6.68 1.64 5.36 3 4 C1.35 3.34 -0.3 2.68 -2 2 C-1.34 1.34 -0.68 0.68 0 0 Z " fill="#E6765C" transform="translate(31,183)"/>
<path d="M0 0 C0.86302734 -0.01224609 1.72605469 -0.02449219 2.61523438 -0.03710938 C3.85950195 -0.04000977 3.85950195 -0.04000977 5.12890625 -0.04296875 C5.88373291 -0.04707764 6.63855957 -0.05118652 7.41625977 -0.05541992 C9.4375 0.1875 9.4375 0.1875 12.4375 2.1875 C12.1075 2.8475 11.7775 3.5075 11.4375 4.1875 C9.48803711 4.59814453 9.48803711 4.59814453 6.96484375 4.8203125 C6.06572266 4.90410156 5.16660156 4.98789062 4.24023438 5.07421875 C3.29470703 5.15285156 2.34917969 5.23148438 1.375 5.3125 C0.42560547 5.39886719 -0.52378906 5.48523438 -1.50195312 5.57421875 C-3.85485092 5.78704368 -6.20818595 5.99107031 -8.5625 6.1875 C-8.5625 7.1775 -8.5625 8.1675 -8.5625 9.1875 C-9.5525 9.1875 -10.5425 9.1875 -11.5625 9.1875 C-11.8925 9.8475 -12.2225 10.5075 -12.5625 11.1875 C-12.8925 7.8875 -13.2225 4.5875 -13.5625 1.1875 C-8.92217704 0.02741926 -4.75535493 0.00356741 0 0 Z " fill="#D79574" transform="translate(126.5625,19.8125)"/>
<path d="M0 0 C0.33 0 0.66 0 1 0 C1 1.65 1 3.3 1 5 C0.01 5.33 -0.98 5.66 -2 6 C-2.33 6.66 -2.66 7.32 -3 8 C-2.34 8.33 -1.68 8.66 -1 9 C-1.66 9.66 -2.32 10.32 -3 11 C-3 11.66 -3 12.32 -3 13 C-4.66611905 13.042721 -6.33382885 13.04063832 -8 13 C-8.33 12.67 -8.66 12.34 -9 12 C-9.66 12 -10.32 12 -11 12 C-11 11.34 -11 10.68 -11 10 C-11.99 10.33 -12.98 10.66 -14 11 C-14.66 10.34 -15.32 9.68 -16 9 C-13 7 -13 7 -10 7 C-9.34 6.01 -8.68 5.02 -8 4 C-8 4.66 -8 5.32 -8 6 C-7.34 5.67 -6.68 5.34 -6 5 C-5.67 4.01 -5.34 3.02 -5 2 C-4.67 2.66 -4.34 3.32 -4 4 C-3.01 3.67 -2.02 3.34 -1 3 C-0.67 2.01 -0.34 1.02 0 0 Z " fill="#E15935" transform="translate(200,179)"/>
<path d="M0 0 C1.32 0.33 2.64 0.66 4 1 C3.01 1.495 3.01 1.495 2 2 C2.57344937 4.86724686 2.8614515 5.8614515 5 8 C1.64880481 10.23413013 0.5822245 10.23847762 -3.32421875 10.1953125 C-4.86625977 10.18564453 -4.86625977 10.18564453 -6.43945312 10.17578125 C-7.51130859 10.15902344 -8.58316406 10.14226562 -9.6875 10.125 C-10.77095703 10.11597656 -11.85441406 10.10695312 -12.97070312 10.09765625 C-15.6473571 10.0740734 -18.32356797 10.04116126 -21 10 C-21 9.67 -21 9.34 -21 9 C-20.13117188 8.95101562 -19.26234375 8.90203125 -18.3671875 8.8515625 C-17.21476563 8.77679688 -16.06234375 8.70203125 -14.875 8.625 C-13.16957031 8.52058594 -13.16957031 8.52058594 -11.4296875 8.4140625 C-8.04606384 8.00556124 -5.18387559 7.19032431 -2 6 C-2 5.01 -2 4.02 -2 3 C-1.34 3 -0.68 3 0 3 C0 2.01 0 1.02 0 0 Z " fill="#E67454" transform="translate(200,186)"/>
<path d="M0 0 C0.66 1.32 1.32 2.64 2 4 C0 5 0 5 -3 6 C-5.6875 4.6875 -5.6875 4.6875 -8 3 C-8 2.34 -8 1.68 -8 1 C-5.07175348 0.02391783 -3.04386724 -0.08226668 0 0 Z " fill="#D7A783" transform="translate(133,36)"/>
<path d="M0 0 C4.95 0.99 4.95 0.99 10 2 C10.33 3.65 10.66 5.3 11 7 C7.87709365 6.51421457 5.00419641 6.0013988 2 5 C0.8125 2.4375 0.8125 2.4375 0 0 Z " fill="#D89D7C" transform="translate(100,21)"/>
<path d="M0 0 C3.02419525 0.58803797 6.01758453 1.22678118 9 2 C9 2.66 9 3.32 9 4 C7.02 4.99 7.02 4.99 5 6 C5 6.66 5 7.32 5 8 C4.01 8 3.02 8 2 8 C1.67 8.66 1.34 9.32 1 10 C0.67 6.7 0.34 3.4 0 0 Z " fill="#D89070" transform="translate(113,21)"/>
<path d="M0 0 C0 0.99 0 1.98 0 3 C0.66 3.66 1.32 4.32 2 5 C0.54119891 4.85892253 -0.91703551 4.71197585 -2.375 4.5625 C-3.59316406 4.44068359 -3.59316406 4.44068359 -4.8359375 4.31640625 C-7 4 -7 4 -9 3 C-9 2.34 -9 1.68 -9 1 C-6.04335481 -0.4783226 -3.25770263 -0.06032783 0 0 Z " fill="#D89D7B" transform="translate(97,20)"/>
<path d="M0 0 C0.33 0.66 0.66 1.32 1 2 C2.98 1.67 4.96 1.34 7 1 C7 1.66 7 2.32 7 3 C3.12315913 4.19287411 0.08378077 5 -4 5 C-4.33 4.01 -4.66 3.02 -5 2 C-3.35 1.34 -1.7 0.68 0 0 Z " fill="#D99071" transform="translate(100,26)"/>
<path d="M0 0 C0.99 0.33 1.98 0.66 3 1 C3 4 3 4 2 7 C1.34 6.67 0.68 6.34 0 6 C-0.33 6.33 -0.66 6.66 -1 7 C-1.99 7.495 -1.99 7.495 -3 8 C-3.33 6.68 -3.66 5.36 -4 4 C-3.01 4 -2.02 4 -1 4 C-0.67 2.68 -0.34 1.36 0 0 Z " fill="#E76F3D" transform="translate(27,186)"/>
<path d="M0 0 C0.66 0.33 1.32 0.66 2 1 C2 2.98 2 4.96 2 7 C0.35 7 -1.3 7 -3 7 C-2.67 6.34 -2.34 5.68 -2 5 C-2.39938767 2.90178785 -2.39938767 2.90178785 -3 1 C-2.01 0.67 -1.02 0.34 0 0 Z " fill="#DC4935" transform="translate(204,186)"/>
<path d="M0 0 C2.31 0 4.62 0 7 0 C6.67 1.32 6.34 2.64 6 4 C6.66 4.33 7.32 4.66 8 5 C5.03 4.67 2.06 4.34 -1 4 C-0.67 2.68 -0.34 1.36 0 0 Z " fill="#D9AF8C" transform="translate(117,20)"/>
<path d="M0 0 C0.268125 0.61875 0.53625 1.2375 0.8125 1.875 C1.95556848 4.2995233 1.95556848 4.2995233 5 6 C2.36 6.66 -0.28 7.32 -3 8 C-3.33 7.01 -3.66 6.02 -4 5 C-3.34 5 -2.68 5 -2 5 C-1.34 3.35 -0.68 1.7 0 0 Z " fill="#E9733F" transform="translate(19,183)"/>
<path d="M0 0 C0.33 0.66 0.66 1.32 1 2 C2.65 1.67 4.3 1.34 6 1 C6.33 2.98 6.66 4.96 7 7 C4.03 5.35 1.06 3.7 -2 2 C-1.34 1.34 -0.68 0.68 0 0 Z " fill="#E66E41" transform="translate(31,183)"/>
<path d="M0 0 C0.66 0.33 1.32 0.66 2 1 C2 2.32 2 3.64 2 5 C-1.01031744 5.93423645 -1.86650268 6.04449911 -5 5 C-3.768606 2.53721199 -2.21935077 1.57502313 0 0 Z " fill="#E25C36" transform="translate(34,188)"/>
<path d="M0 0 C0.33 0.66 0.66 1.32 1 2 C3.02463255 2.65213292 3.02463255 2.65213292 5 3 C4 6 4 6 3 8 C2.67 8.99 2.34 9.98 2 11 C1.34 10.67 0.68 10.34 0 10 C0 6.7 0 3.4 0 0 Z " fill="#E05534" transform="translate(195,157)"/>
<path d="M0 0 C1.32 0 2.64 0 4 0 C3.6875 1.875 3.6875 1.875 3 4 C2.01 4.66 1.02 5.32 0 6 C-0.38218767 4.34385343 -0.71395102 2.67542976 -1 1 C-0.67 0.67 -0.34 0.34 0 0 Z " fill="#DF5235" transform="translate(177,189)"/>
<path d="M0 0 C0.66 0 1.32 0 2 0 C2.33 1.65 2.66 3.3 3 5 C1.35 5.33 -0.3 5.66 -2 6 C-1.125 1.125 -1.125 1.125 0 0 Z " fill="#DC4730" transform="translate(10,187)"/>
<path d="M0 0 C0.66 0.66 1.32 1.32 2 2 C1.34 2 0.68 2 0 2 C0 1.34 0 0.68 0 0 Z M-3 1 C-2.01 1.33 -1.02 1.66 0 2 C-0.66 3.98 -1.32 5.96 -2 8 C-3.65 6.35 -5.3 4.7 -7 3 C-5.68 2.67 -4.36 2.34 -3 2 C-3 1.67 -3 1.34 -3 1 Z " fill="#DABA95" transform="translate(135,38)"/>
<path d="M0 0 C0.99 0.33 1.98 0.66 3 1 C3 1.99 3 2.98 3 4 C3.99 4.33 4.98 4.66 6 5 C3.3333581 6.33332095 1.83319697 5.67102033 -1 5 C-0.67 3.35 -0.34 1.7 0 0 Z " fill="#D79C7A" transform="translate(120,29)"/>
<path d="M0 0 C0 0.66 0 1.32 0 2 C-4.29 1.67 -8.58 1.34 -13 1 C-13 0.67 -13 0.34 -13 0 C-4.57142857 -1.28571429 -4.57142857 -1.28571429 0 0 Z " fill="#DBB593" transform="translate(140,24)"/>
<path d="M0 0 C0.66 1.32 1.32 2.64 2 4 C1 5 1 5 -2.0625 5.0625 C-3.5165625 5.0315625 -3.5165625 5.0315625 -5 5 C-4.67 3.68 -4.34 2.36 -4 1 C-3.34 1.66 -2.68 2.32 -2 3 C-1.34 2.01 -0.68 1.02 0 0 Z " fill="#D79D7B" transform="translate(81,20)"/>
<path d="M0 0 C0.33 0.66 0.66 1.32 1 2 C1.99 1.67 2.98 1.34 4 1 C4.66 1.66 5.32 2.32 6 3 C5.67 3.99 5.34 4.98 5 6 C4.34 6 3.68 6 3 6 C3 5.01 3 4.02 3 3 C1.02 3.99 1.02 3.99 -1 5 C-0.67 3.35 -0.34 1.7 0 0 Z " fill="#E56C48" transform="translate(9,184)"/>
<path d="M0 0 C0.66 0.33 1.32 0.66 2 1 C2 1.66 2 2.32 2 3 C3.32 2.34 4.64 1.68 6 1 C6 1.99 6 2.98 6 4 C4.35 4.66 2.7 5.32 1 6 C1 4.68 1 3.36 1 2 C0.34 1.67 -0.32 1.34 -1 1 C-0.67 0.67 -0.34 0.34 0 0 Z " fill="#DAAF8D" transform="translate(94,28)"/>
</svg>
